<?xml version="1.0" standalone="no"?>
<!DOCTYPE svg PUBLIC "-//W3C//DTD SVG 20010904//EN"
 "http://www.w3.org/TR/2001/REC-SVG-20010904/DTD/svg10.dtd">
<svg version="1.0" xmlns="http://www.w3.org/2000/svg"
 width="800.000000pt" height="800.000000pt" viewBox="0 0 800.000000 800.000000"
 preserveAspectRatio="xMidYMid meet">
<metadata>
Created by potrace 1.14, written by Peter Selinger 2001-2017
</metadata>
<g transform="translate(0.000000,800.000000) scale(0.100000,-0.100000)"
fill="#000000" stroke="none">
<path d="M2080 7318 c-62 -11 -177 -69 -232 -117 -68 -61 -134 -164 -157 -247
-19 -70 -19 -124 -19 -2450 0 -1521 3 -2399 10 -2434 23 -128 143 -288 264
-353 113 -59 -56 -56 2554 -56 2114 -1 2403 1 2455 14 63 16 120 41 143 63 7
6 16 12 20 12 26 1 138 131 172 200 52 102 50 -18 47 2570 l-2 2415 -23 55
c-63 156 -195 276 -347 318 -68 19 -125 19 -2455 19 -1312 0 -2405 -4 -2430
-9z m4757 -2822 l-2 -2331 -2331 -3 -2332 -2 0 2334 0 2334 2333 0 2333 0 -1
-2332z"/>
<path d="M3707 5944 c-3 -3 -50 -8 -104 -10 -54 -3 -110 -5 -125 -6 -16 -1
-28 -5 -28 -9 0 -4 -8 -6 -17 -5 -10 2 -39 -3 -66 -10 -26 -7 -50 -13 -52 -13
-10 -2 -22 -5 -75 -20 -25 -7 -51 -18 -57 -23 -7 -6 -13 -7 -13 -3 0 4 -16 -3
-36 -14 -19 -12 -39 -19 -44 -16 -5 3 -10 0 -12 -5 -2 -6 -10 -12 -18 -13 -9
-1 -32 -13 -51 -25 -20 -12 -41 -22 -48 -22 -6 0 -11 -4 -11 -9 0 -5 -8 -11
-17 -15 -33 -11 -123 -73 -116 -79 3 -4 0 -7 -8 -7 -8 0 -43 -28 -79 -62 -36
-34 -68 -61 -72 -60 -5 1 -8 -2 -8 -8 0 -5 -16 -25 -37 -45 -20 -19 -33 -35
-30 -35 6 0 -12 -23 -48 -64 -22 -24 -65 -96 -58 -96 5 0 0 -5 -9 -11 -10 -5
-18 -16 -18 -23 0 -8 -7 -19 -15 -26 -8 -7 -15 -21 -15 -31 0 -11 -4 -19 -10
-19 -5 0 -9 -3 -8 -7 1 -5 -4 -19 -12 -33 -8 -14 -15 -29 -16 -35 -2 -5 -12
-35 -24 -65 -12 -30 -23 -62 -25 -70 -1 -8 -10 -42 -19 -75 -8 -33 -18 -85
-22 -115 -3 -30 -8 -58 -11 -62 -8 -14 -2 -333 7 -333 2 0 7 -38 11 -83 2 -18
7 -35 11 -38 4 -3 5 -11 1 -19 -3 -8 0 -15 7 -15 6 0 9 -4 6 -9 -8 -12 39
-151 74 -223 16 -31 26 -59 22 -62 -3 -3 -1 -6 5 -6 6 0 13 -8 16 -17 4 -10
18 -36 32 -58 13 -22 28 -47 32 -55 21 -46 263 -319 263 -297 0 3 14 -8 31
-24 134 -125 475 -279 642 -291 20 -1 37 -5 37 -8 0 -5 54 -8 165 -9 94 0 125
2 125 10 0 4 9 6 20 4 11 -2 20 0 20 5 0 5 9 12 20 15 55 17 134 154 116 200
-3 8 -2 17 3 19 4 3 7 13 6 23 -4 37 -18 98 -24 103 -22 18 -73 129 -75 164
-1 17 -5 37 -9 44 -5 7 -3 12 3 12 6 0 9 4 6 8 -12 20 36 89 76 112 40 22 53
24 238 25 107 1 218 6 245 10 28 4 56 8 63 8 6 0 12 4 12 9 0 5 4 7 9 4 16
-10 190 57 228 89 7 5 36 28 66 50 30 21 76 68 103 103 27 35 55 70 62 78 7 8
10 14 6 14 -4 0 1 9 12 21 10 12 18 23 16 25 -1 2 5 20 13 40 35 84 55 174 59
264 1 19 5 40 9 47 4 6 2 13 -4 15 -9 3 -9 10 1 27 6 13 8 26 4 30 -5 3 -10
31 -10 61 -1 53 -7 98 -18 150 -3 14 -11 49 -17 78 -6 28 -15 52 -20 52 -6 0
-7 5 -4 10 7 12 -84 210 -97 210 -4 0 -7 3 -6 8 3 11 -43 82 -53 82 -5 0 -9 6
-9 13 0 6 -16 29 -35 50 -18 20 -32 37 -30 37 2 0 -14 18 -36 40 -22 22 -41
40 -43 40 -2 0 -21 17 -42 38 -22 20 -73 60 -114 87 -41 28 -78 55 -82 60 -4
6 -8 6 -8 1 0 -5 -7 -3 -15 4 -15 12 -110 59 -120 59 -3 1 -18 7 -34 16 -33
17 -159 59 -211 71 -49 11 -50 11 -52 14 -2 1 -16 3 -33 5 -16 1 -30 4 -30 5
0 1 -18 3 -41 4 -22 2 -45 5 -50 8 -5 3 -35 5 -67 6 -31 1 -61 3 -66 6 -4 3
-11 3 -14 0z m-19 -219 c34 0 62 4 62 8 0 5 4 6 9 2 5 -3 33 -7 63 -10 48 -4
101 -12 183 -30 17 -3 53 -13 80 -22 28 -10 53 -18 58 -19 4 -1 10 -3 15 -4 4
-1 10 -2 15 -1 4 0 7 -3 7 -9 0 -5 6 -10 13 -10 32 0 277 -142 277 -161 0 -5
7 -9 15 -9 8 0 15 -5 15 -12 0 -6 2 -9 5 -6 9 8 139 -126 182 -187 23 -33 93
-160 94 -172 1 -5 6 -19 11 -33 31 -79 50 -171 52 -257 0 -29 4 -53 8 -53 4 0
5 -6 3 -12 -3 -7 -7 -44 -9 -83 -6 -79 -14 -133 -23 -155 -3 -8 -7 -17 -7 -20
-1 -3 -8 -16 -16 -30 -7 -14 -13 -27 -12 -30 4 -11 -10 -40 -19 -40 -5 0 -9
-7 -9 -15 0 -9 -10 -27 -22 -40 -13 -13 -28 -30 -34 -37 -5 -7 -27 -26 -49
-43 -21 -16 -44 -36 -51 -43 -7 -7 -16 -12 -19 -12 -3 0 -18 -6 -33 -13 -15
-8 -45 -20 -67 -27 -22 -7 -44 -15 -49 -18 -17 -10 -95 -14 -288 -15 -109 -1
-198 -5 -198 -8 0 -4 -10 -6 -23 -6 -35 0 -108 -36 -147 -71 -19 -18 -39 -32
-44 -32 -5 0 -7 -3 -3 -6 5 -6 0 -15 -31 -49 -18 -20 -52 -102 -45 -109 4 -3
0 -6 -7 -6 -7 0 -10 -3 -7 -6 3 -4 2 -15 -4 -25 -7 -14 -6 -19 3 -19 8 0 9 -3
3 -8 -12 -8 -15 -152 -4 -152 3 0 7 -11 7 -24 0 -26 37 -86 53 -86 5 0 9 -7 9
-15 0 -8 5 -15 10 -15 6 0 10 -20 10 -45 0 -39 -4 -46 -27 -57 -31 -15 -52
-16 -70 -5 -8 5 -13 3 -13 -4 0 -8 -5 -7 -17 2 -14 12 -15 12 -9 1 7 -11 4
-12 -13 -3 -16 9 -21 9 -21 -1 0 -8 -3 -9 -8 -3 -4 6 -25 12 -47 14 -57 4 -78
7 -95 14 -8 3 -28 8 -45 11 -16 4 -34 8 -40 10 -5 2 -25 7 -42 11 -18 4 -33
11 -33 16 0 5 -7 6 -15 3 -8 -4 -15 -1 -15 6 0 6 -4 9 -9 5 -5 -3 -12 -1 -16
5 -3 5 -15 10 -26 10 -10 0 -19 4 -19 9 0 4 -20 16 -45 25 -25 10 -45 22 -45
27 0 5 -7 9 -15 9 -8 0 -15 5 -15 11 0 5 -4 8 -8 5 -5 -3 -19 5 -33 18 -13 12
-41 33 -61 47 -21 14 -35 29 -31 32 3 4 1 7 -5 7 -16 0 -142 129 -178 182 -16
24 -32 44 -36 46 -4 2 -17 23 -29 48 -13 24 -26 44 -31 44 -4 0 -8 9 -8 19 0
11 -4 22 -9 26 -9 5 -68 148 -77 185 -2 8 -8 32 -13 53 -5 20 -7 37 -4 37 2 0
1 6 -4 13 -8 13 -9 19 -18 92 -6 54 -7 60 -6 90 1 11 0 38 -2 60 -2 22 1 46 6
53 6 8 6 12 -1 12 -6 0 -7 12 -3 33 5 18 7 40 5 50 -1 9 1 17 4 17 4 0 8 19 9
43 2 50 45 204 75 267 32 68 111 200 120 200 4 0 8 6 8 14 0 8 7 17 16 20 9 4
14 9 11 13 -4 3 25 37 63 75 39 39 70 75 70 81 0 6 3 8 6 4 4 -3 23 9 43 28
20 19 44 38 54 41 9 3 17 10 17 15 0 5 7 9 15 9 8 0 15 4 15 8 0 4 30 24 68
43 37 18 69 37 70 42 2 4 12 7 23 7 10 0 19 5 19 11 0 5 5 7 10 4 6 -3 10 -1
10 6 0 7 3 10 6 7 3 -4 22 0 42 9 20 8 43 17 51 19 9 2 44 10 78 18 34 9 76
17 93 18 16 1 30 5 30 8 0 4 23 6 50 5 29 -1 50 3 50 9 0 7 3 8 8 1 4 -5 35
-10 70 -10z"/>
<path d="M3217 5376 c-52 -26 -96 -88 -101 -143 -2 -23 -1 -45 3 -48 3 -4 6
-10 6 -13 2 -30 80 -116 96 -106 5 3 9 1 9 -5 0 -9 99 -10 130 -1 17 6 90 80
90 92 0 14 2 22 11 45 4 12 5 25 0 27 -5 3 -6 16 -4 28 6 30 -46 102 -87 123
-48 25 -105 25 -153 1z"/>
<path d="M3970 5379 c-104 -47 -139 -172 -71 -258 46 -57 94 -78 159 -69 30 5
60 15 68 23 9 8 18 15 22 15 4 0 18 17 32 37 30 43 36 122 13 167 -45 87 -139
123 -223 85z"/>
<path d="M2850 4801 c0 -5 -8 -7 -19 -4 -21 5 -77 -20 -103 -47 -26 -28 -54
-93 -52 -125 2 -56 32 -108 78 -138 47 -29 113 -42 134 -25 6 6 12 8 12 4 0
-15 61 26 83 56 58 79 53 160 -15 227 -22 23 -44 38 -49 35 -5 -3 -9 0 -9 7 0
7 -3 10 -6 6 -3 -3 -17 -2 -30 3 -14 6 -24 6 -24 1z"/>
<path d="M4488 4805 c-2 -3 -13 -6 -24 -8 -47 -9 -73 -20 -68 -28 3 -5 -2 -9
-11 -9 -9 0 -14 -4 -11 -9 3 -5 0 -11 -7 -14 -20 -8 -45 -66 -43 -98 1 -16 -2
-29 -6 -29 -5 0 -2 -10 7 -23 8 -13 13 -26 10 -29 -6 -6 73 -87 86 -89 19 -3
24 -4 34 -10 11 -6 59 -4 90 4 11 3 23 6 26 6 14 2 71 64 81 89 12 29 18 132
8 132 -4 0 -12 11 -18 24 -14 31 -73 76 -108 82 -15 3 -31 7 -34 9 -4 3 -9 2
-12 0z"/>
<path d="M6447 5394 c-3 -3 -11 -7 -19 -8 -26 -5 -76 -41 -94 -67 -10 -16 -20
-27 -22 -25 -4 5 -132 -127 -132 -137 0 -4 -4 -6 -8 -3 -4 2 -17 -9 -27 -25
-11 -16 -26 -29 -33 -29 -7 0 -10 -4 -7 -10 3 -5 1 -10 -5 -10 -12 0 -21 -8
-63 -58 -15 -19 -27 -32 -27 -29 0 6 -138 -132 -161 -162 -11 -13 -19 -22 -19
-19 0 7 -299 -294 -310 -312 -5 -8 -10 -12 -10 -8 0 9 -150 -145 -150 -155 0
-4 -3 -7 -7 -5 -5 2 -49 -38 -99 -89 -50 -51 -89 -93 -87 -93 2 0 -21 -21 -51
-47 -30 -27 -57 -54 -60 -60 -3 -7 17 -36 44 -63 28 -28 50 -52 50 -53 0 -7
207 -217 213 -217 15 0 1342 1335 1355 1363 17 40 15 97 -7 132 -19 33 -133
149 -166 170 -22 15 -89 28 -98 19z"/>
<path d="M4647 3744 c-2 -3 -14 -7 -26 -9 -11 -3 -29 -7 -38 -9 -25 -5 -103
-58 -103 -68 0 -5 -4 -6 -10 -3 -5 3 -10 2 -10 -3 0 -5 -13 -22 -28 -38 -15
-16 -38 -54 -50 -85 -22 -54 -27 -78 -36 -189 -3 -30 -7 -64 -10 -75 -12 -57
-19 -75 -27 -75 -5 0 -9 -6 -9 -13 0 -24 -120 -123 -134 -110 -3 3 -6 1 -6 -6
0 -7 -4 -10 -9 -6 -5 3 -13 1 -16 -5 -6 -10 49 -70 65 -70 5 0 15 -6 22 -13
17 -17 104 -57 122 -57 8 0 17 -4 21 -10 3 -5 12 -7 19 -4 8 3 17 1 20 -5 4
-6 13 -8 21 -5 7 3 23 0 35 -6 18 -10 21 -10 14 2 -6 10 -5 11 7 2 22 -17 189
-8 239 13 8 3 23 8 33 10 24 4 78 32 95 49 7 8 19 14 27 14 7 0 15 4 17 9 2 5
23 25 46 45 24 20 40 36 36 36 -4 0 2 10 14 23 22 24 79 141 80 167 1 14 8 48
12 60 6 15 4 36 -5 42 -6 5 -6 8 1 8 12 0 11 22 -1 90 -4 19 -8 42 -9 51 -1 9
-10 28 -19 42 -9 15 -17 31 -17 36 0 5 -23 32 -51 59 -50 49 -110 86 -159 99
-31 7 -166 13 -173 7z m76 -205 c19 7 27 7 27 0 0 -6 7 -8 15 -5 22 8 102 -74
103 -105 0 -13 1 -28 3 -34 6 -18 -11 -114 -21 -120 -6 -4 -8 -10 -6 -14 3 -4
-6 -20 -20 -36 -13 -15 -24 -32 -24 -37 0 -4 -5 -8 -11 -8 -7 0 -19 -8 -28
-19 -22 -25 -80 -57 -122 -66 -43 -10 -144 -8 -184 3 l-30 9 35 11 c53 18 89
86 94 177 1 11 6 26 10 34 7 10 5 12 -4 6 -10 -6 -10 -4 -2 11 6 11 7 27 1 41
-5 13 -4 25 2 28 5 4 7 11 4 16 -4 5 -1 9 5 9 6 0 9 4 6 8 -13 21 101 110 115
90 3 -5 18 -4 32 1z"/>
<path d="M676 6322 c-9 -16 -3 -5215 6 -5260 38 -181 217 -358 397 -392 35 -7
955 -10 2657 -10 l2604 0 0 250 0 250 -2584 0 -2584 0 0 2563 c-1 1409 -1
2572 -1 2583 -1 21 -4 21 -246 22 -135 0 -247 -3 -249 -6z"/>
</g>
</svg>
